<svg xmlns="http://www.w3.org/2000/svg" width="1200" height="630" viewBox="0 0 1200 630">
  <defs>
    <radialGradient id="g" cx="75%" cy="25%" r="60%">
      <stop offset="0%" stop-color="#7C3AED" stop-opacity="0.35"/>
      <stop offset="100%" stop-color="#0A0A0F" stop-opacity="0"/>
    </radialGradient>
  </defs>
  <rect width="1200" height="630" fill="#0A0A0F"/>
  <rect width="1200" height="630" fill="url(#g)"/>
  <path d="M0 90h1200M0 180h1200M0 270h1200M0 360h1200M0 450h1200M0 540h1200M120 0v630M240 0v630M360 0v630M480 0v630M600 0v630M720 0v630M840 0v630M960 0v630M1080 0v630" stroke="#7C3AED" stroke-opacity="0.09"/>
  <text x="90" y="245" fill="#F8FAFC" font-family="Inter, Arial, sans-serif" font-size="92" font-weight="800">Vibe<tspan fill="#7C3AED">Fix</tspan></text>
  <text x="94" y="330" fill="#94A3B8" font-family="Inter, Arial, sans-serif" font-size="34" font-weight="500">Broken AI App Diagnosis</text>
  <text x="94" y="390" fill="#F8FAFC" font-family="Inter, Arial, sans-serif" font-size="44" font-weight="700">Stop prompting blindly.</text>
</svg>
